/* XPM */
static char * coin_48_xpm[] = {
"48 48 7 1",
" 	c #2ECC71",
".	c #27AE60",
"+	c #1E8449",
"@	c #239B56",
"#	c #C8A000",
"$	c #FFDF00",
"%	c #FFFFB4",
" .. .................. + ......++........+@..+..",
"......+ ....+..++..+ ....+.............. ..+..  ",
"..++..+..+......+..@.. +..@ ....@  @+.. +....+..",
"..+..+.. + ....+ @@+..+..++....+..@..........@+.",
"..  ......+....@@++..@+..@.... ++++......@......",
"..++@.... .... +.. .... @+....+ +..++..@+.......",
"...... ....+..@@@ ..+.#####......... ......@....",
"..........+ ....@ ..#########@  ....+.... .... +",
".. ..++......+..+.####$$$$$####.... ..++.. ....+",
".... .. +@.......###$$$$$$$$$###. ....@..@.. @ .",
"..   +....@.... ###$$$$%%%$$$$###...... +.... @ ",
"..  @ ..+.. ..+.##$$$$%$$$%$$$$##...@@..+ ......",
"  .. ....  ..+ ##$$$$%$$$$$%$$$$##......@ ..+...",
"......@++......##$$$%$$$$$$$%$$$##.... ..+.. +..",
"+.............##$$$$%$$$$$$$%$$$$##. ++@....+...",
".. ........@..##$$$%$$$$$$$$$%$$$##.......+.....",
"@..+@..@ +...##$$$$%$$$$$$$$$%$$$$##. +..   +..+",
"@...... ..+..##$$$$%$$$$$$$$$%$$$$##@..@ ..+....",
".. .. .......##$$$$%$$$$$$$$$%$$$$##.......@+@++",
"....+ ....++##$$$$%$$$$$$$$$$$%$$$$##  ..@..@+..",
" +....++..+.##$$$$%$$$$$$$$$$$%$$$$## ..+..+..+.",
"@@....  ....##$$$$%$$$$$$$$$$$%$$$$##.... ......",
" +++ +......##$$$$%$$$$$$$$$$$%$$$$##..@+@ ..+..",
"@+..+ +.....##$$$$%$$$$$$$$$$$%$$$$##......+....",
"++@ ....+ ..##$$$$%$$$$$$$$$$$%$$$$## @....++ ..",
" +@.. .. ...##$$$$%$$$$$$$$$$$%$$$$##...... ....",
"+....+..@+  ##$$$$%$$$$$$$$$$$%$$$$##...+..+@...",
".... .. ++ .##$$$$%$$$$$$$$$$$%$$$$## ......@@@@",
"........ +++##$$$$%$$$$$$$$$$$%$$$$## +..+ .....",
"....+ ......##$$$$%$$$$$$$$$$$%$$$$##.@.... +++.",
".... @.. ..+.##$$$$%$$$$$$$$$%$$$$##..+.. ....  ",
"...... ......##$$$$%$$$$$$$$$%$$$$##.++@........",
"..@+ ..  ....##$$$$%$$$$$$$$$%$$$$##. ....+  ..+",
" ....+..  +...##$$$%$$$$$$$$$%$$$##   ....  +...",
" ..+@  ..+....##$$$$%$$$$$$$%$$$$## + ..@.......",
" +..@+..+ +..  ##$$$%$$$$$$$%$$$##  .. ......@@+",
"..+@.... +..@+@##$$$$%$$$$$%$$$$##@ @@..++.. ..+",
"@  ....+.. ++...##$$$$%$$$%$$$$##.......+ ..++++",
" +.. ..@+@ +....###$$$$%%%$$$$###.+.............",
"+.... ........@..###$$$$$$$$$###....++..+@..+ ..",
"..+....@........+.####$$$$$####.....@....@..@+@.",
"..@ ..+....+ @+++..+#########...@.. @..@........",
"....@ .. .. +.........#####. ..@.. @..+..@ @@  .",
"@+..++@+....+....+........  ......  ..  .... ++.",
".... +.. +.. +.. ...... ..@ ..+++....+ ..@+ ....",
"..@..+..+....+..........+.... .. +.. +....+ ..  ",
"  ........++......@..+  +....++@....+.. ......  ",
"+..+....@+..+.. .. .... ......  ........+.. .. ."};
