/* XPM */
static char * exit_48_xpm[] = {
"48 48 8 1",
" 	c #2ECC71",
".	c #27AE60",
"+	c #1E8449",
"@	c #239B56",
"#	c #64320A",
"$	c #8B4513",
"%	c #646464",
"&	c #B4B4B4",
" .. .................. + ......++........+@..+..",
"......+ ....+..++..+ ....+.............. ..+..  ",
"..++..+..+......+..@.. +..@ ....@  @+.. +....+..",
"..+..+.. + ....+ @@+..+..++....+..@..........@+.",
"..  ......+....@@++..@+..@.... ++++......@......",
"..++@.... .... +.. .... @+....+ +..++..@+.......",
"...... ....+..@@@ ..+.... .......... ......@....",
"..........+ ....@ ..+...... @@  ....+.... .... +",
".. ..++.#################################. ....+",
".... .. #################################@.. @ .",
"..   +..##$$$$##$$$$$$##$$$$$$##$$$$$$###.... @ ",
"..  @ ..##$$$$##$$$$$$##$$$$$$##$$$$$$### ......",
"  .. ...##$$$$##$$$$$$##$$$$$$##$$$$$$### ..+...",
"......@+##$$$$##$$$$$$##$$$$$$##$$$$$$###+.. +..",
"+.......##$$$$##$$$$$$##$$$$$$##$$$$$$###...+...",
".. .....##$$$$##$$$$$$##$$$$$$##$$$$$$###.+.....",
"@..+@..@##$$$$##$$$$$$##$$$$$$##$$$$$$###   +..+",
"@...... ##$$$$##$$$$$$##$$$$$$##$$$$$$###..+....",
".. .. ..##$$$$##$$$$$$##$$$$$$##$$$$$$###..@+@++",
"....+ ..##$$$$##$$$$$$##$$$$$$##$$$$$$###@..@+..",
" +....++##$$$$##$$$$%%%%%%%%%$##$$$$$$###..+..+.",
"@@....  ##$$$$##$$$$%&&&&&&&%$##$$$$$$### ......",
" +++ +..##$$$$##$$$$%&&&&&&&%$##$$$$$$###@ ..+..",
"@+..+ +.##$$$$##$$$$%&&&&&&&%$##$$$$$$###..+....",
"++@ ....##$$$$##$$$$%%%%%%%%%$##$$$$$$###..++ ..",
" +@.. ..##$$$$##$$$$$$##$$$$$$##$$$$$$###.. ....",
"+....+..##$$$$##$$$$$$##$$$$$$##$$$$$$###..+@...",
".... .. ##$$$$##$$$$$$##$$$$$$##$$$$$$###...@@@@",
"........##$$$$##$$$$$$##$$$$$$##$$$$$$###+ .....",
"....+ ..##$$$$##$$$$$$##$$$$$$##$$$$$$###.. +++.",
".... @..##$$$$##$$$$$$##$$$$$$##$$$$$$### ....  ",
"...... .##$$$$##$$$$$$##$$$$$$##$$$$$$###.......",
"..@+ .. ##$$$$##$$$$$$##$$$$$$##$$$$$$###.+  ..+",
" ....+..##$$$$##$$$$$$##$$$$$$##$$$$$$###.  +...",
" ..+@  .##$$$$##$$$$$$##$$$$$$##$$$$$$###.......",
" +..@+..##$$$$##$$$$$$##$$$$$$##$$$$$$###....@@+",
"..+@....##$$$$##$$$$$$##$$$$$$##$$$$$$###+.. ..+",
"@  ....+##$$$$##$$$$$$##$$$$$$##$$$$$$### ..++++",
" +.. ..@##$$$$##$$$$$$##$$$$$$##$$$$$$###.......",
"+.... ..#################################@..+ ..",
"..+....@#################################@..@+@.",
"..@ ..+....+ @+++..+ ....+......@.. @..@........",
"....@ .. .. +............+.. ..@.. @..+..@ @@  .",
"@+..++@+....+....+........  ......  ..  .... ++.",
".... +.. +.. +.. ...... ..@ ..+++....+ ..@+ ....",
"..@..+..+....+..........+.... .. +.. +....+ ..  ",
"  ........++......@..+  +....++@....+.. ......  ",
"+..+....@+..+.. .. .... ......  ........+.. .. ."};
