/* XPM */
static char *floor_xpm[] = {
"48 48 5 1",
"  c #2ecc71",
". c #27ae60",
"+ c #1e8449",
"- c #58d68d",
"* c #28b463",
"------------------------------------------------",
"------------------------------------------------",
"------------------------------------------------",
"---******------******------******------******---",
"---******------******------******------******---",
"---******------******------******------******---",
"---***------******------******------******------",
"---***------******------******------******------",
"---***------******------******------******------",
"------******------******------******------***---",
"------******------******------******------***---",
"------******------******------******------***---",
"---******------******------******------******---",
"---******------******------******------******---",
"---******------******------******------******---",
"------******------******------******------***---",
"------******------******------******------***---",
"------******------******------******------***---",
"---******------******------******------******---",
"---******------******------******------******---",
"---******------******------******------******---",
"------******------******------******------***---",
"------******------******------******------***---",
"------******------******------******------***---",
"---******------******------******------******---",
"---******------******------******------******---",
"---******------******------******------******---",
"------******------******------******------***---",
"------******------******------******------***---",
"------******------******------******------***---",
"---******------******------******------******---",
"---******------******------******------******---",
"---******------******------******------******---",
"------******------******------******------***---",
"------******------******------******------***---",
"------******------******------******------***---",
"---******------******------******------******---",
"---******------******------******------******---",
"---******------******------******------******---",
"------******------******------******------***---",
"------******------******------******------***---",
"------******------******------******------***---",
"---******------******------******------******---",
"---******------******------******------******---",
"---******------******------******------******---",
"------------------------------------------------",
"------------------------------------------------",
"------------------------------------------------"
};
