/* XPM */
static char * open_exit_48_xpm[] = {
"48 48 8 1",
" 	c #2ECC71",
".	c #27AE60",
"+	c #1E8449",
"@	c #239B56",
"#	c #64320A",
"$	c #8B4513",
"%	c #3C3C3C",
"&	c #141414",
" .. .................. + ......++........+@..+..",
"......+ ....+..++..+ ....+.............. ..+..  ",
"..++..+..+......+..@.. +..@ ....@  @+.. +....+..",
"..+..+.. + ....+ @@+..+..++....+..@..........@+.",
"..  ......+....@@++..@+..@.... ++++......@......",
"..++@.... .... +.. .... @+....+ +..++..@+.......",
"......#####################################@....",
"......#####################################... +",
".. ..+##$$$$$$$$$$$$$$$$$$$$$$$$$$$$$$$$$##....+",
".... .##$$$$$$$$$$$$$$$$$$$$$$$$$$$$$$$$$##. @ .",
"..   +##$$$$$$$$$$$$$$$$$$$$$$$$$$$$$$$$$##.. @ ",
"..  @ ##$$$$$$$$$$$$$$$$$$$$$$$$$$$$$$$$$##.....",
"  .. .##$$$$%%%%%%%%%%%%%%%%%%%%%%%%%$$$$##.+...",
"......##$$$$%%%%%%%%%%%%%%%%%%%%%%%%%$$$$##. +..",
"+.....##$$$$%%&&&&&&&&&&&&&&&&&&&&&%%$$$$##.+...",
".. ...##$$$$%%&&&&&&&&&&&&&&&&&&&&&%%$$$$##.....",
"@..+@.##$$$$%%&&&&&&&&&&&&&&&&&&&&&%%$$$$## +..+",
"@.....##$$$$%%&&&&&&&&&&&&&&&&&&&&&%%$$$$##+....",
".. .. ##$$$$%%&&&&&&&&&&&&&&&&&&&&&%%$$$$##@+@++",
"....+ ##$$$$%%&&&&&&&&&&&&&&&&&&&&&%%$$$$##.@+..",
" +....##$$$$%%&&&&&&&&&&&&&&&&&&&&&%%$$$$##+..+.",
"@@....##$$$$%%&&&&&&&&&&&&&&&&&&&&&%%$$$$##.....",
" +++ +##$$$$%%&&&&&&&&&&&&&&&&&&&&&%%$$$$##..+..",
"@+..+ ##$$$$%%&&&&&&&&&&&&&&&&&&&&&%%$$$$##+....",
"++@ ..##$$$$%%&&&&&&&&&&&&&&&&&&&&&%%$$$$##++ ..",
" +@.. ##$$$$%%&&&&&&&&&&&&&&&&&&&&&%%$$$$## ....",
"+....+##$$$$%%&&&&&&&&&&&&&&&&&&&&&%%$$$$##+@...",
".... .##$$$$%%&&&&&&&&&&&&&&&&&&&&&%%$$$$##.@@@@",
"......##$$$$%%&&&&&&&&&&&&&&&&&&&&&%%$$$$##.....",
"....+ ##$$$$%%&&&&&&&&&&&&&&&&&&&&&%%$$$$## +++.",
".... @##$$$$%%&&&&&&&&&&&&&&&&&&&&&%%$$$$##...  ",
"......##$$$$%%&&&&&&&&&&&&&&&&&&&&&%%$$$$##.....",
"..@+ .##$$$$%%&&&&&&&&&&&&&&&&&&&&&%%$$$$##  ..+",
" ....+##$$$$%%&&&&&&&&&&&&&&&&&&&&&%%$$$$## +...",
" ..+@ ##$$$$%%&&&&&&&&&&&&&&&&&&&&&%%$$$$##.....",
" +..@+##$$$$%%%%%%%%%%%%%%%%%%%%%%%%%$$$$##..@@+",
"..+@..##$$$$%%%%%%%%%%%%%%%%%%%%%%%%%$$$$##. ..+",
"@  ...##$$$$$$$$$$$$$$$$$$$$$$$$$$$$$$$$$##.++++",
" +.. .##$$$$$$$$$$$$$$$$$$$$$$$$$$$$$$$$$##.....",
"+.... ##$$$$$$$$$$$$$$$$$$$$$$$$$$$$$$$$$##.+ ..",
"..+...##$$$$$$$$$$$$$$$$$$$$$$$$$$$$$$$$$##.@+@.",
"..@ ..#####################################.....",
"....@ #####################################@@  .",
"@+..++@+....+....+........  ......  ..  .... ++.",
".... +.. +.. +.. ...... ..@ ..+++....+ ..@+ ....",
"..@..+..+....+..........+.... .. +.. +....+ ..  ",
"  ........++......@..+  +....++@....+.. ......  ",
"+..+....@+..+.. .. .... ......  ........+.. .. ."};
