/* XPM */
static char * player_on_exit_48_xpm[] = {
"48 48 56 1",
" 	c #2ECC71",
".	c #27AE60",
"+	c #1E8449",
"@	c #239B56",
"#	c #211E2E",
"$	c #3A2636",
"%	c #4A2C38",
"&	c #3D2836",
"*	c #58393F",
"=	c #59383F",
"-	c #64320A",
";	c #242131",
">	c #8B4513",
",	c #232132",
"'	c #492A39",
")	c #2B2333",
"!	c #92584D",
"~	c #5B3B3E",
"{	c #704442",
"]	c #2E2938",
"^	c #D08C6A",
"/	c #252033",
"(	c #C78063",
"_	c #A4725C",
":	c #D4916F",
"<	c #F3B684",
"[	c #F6BF8D",
"}	c #F6C28E",
"|	c #D99E7B",
"1	c #ECA97A",
"2	c #635366",
"3	c #2C2035",
"4	c #262849",
"5	c #2C336D",
"6	c #BA6D58",
"7	c #323B78",
"8	c #364FA3",
"9	c #7F6772",
"0	c #2F3855",
"a	c #323F86",
"b	c #3454B0",
"c	c #2C3160",
"d	c #3354B2",
"e	c #604359",
"f	c #978288",
"g	c #5D3F4E",
"h	c #D18C68",
"i	c #272744",
"j	c #26284D",
"k	c #473C54",
"l	c #201E31",
"m	c #362F3D",
"n	c #3C344F",
"o	c #DBBFB8",
"p	c #AD9799",
"q	c #C2ADA7",
" .. .................. + ......++........+@..+..",
"......+ ....+..++..+ ....+.............. ..+..  ",
"..++..+..+......+..@.. +..@ ....@  @+.. +....+..",
"..+..+.. + ....+ @@+..+..++....+..@..........@+.",
"..  ......+....@@++..@+..@.... ++++......@......",
"..++@.... .... +..###########.+ +..++..@+.......",
"...... ....+..@@@ $%%%%%%%%%%....... ......@....",
"..........+ ....@&%*=********&& ....+.... .... +",
".. ..++.--------$%*======*==***%;--------. ....+",
".... .. ------;&%*====*=====****=;-------@.. @ .",
"..   +..-->>>>,&%*==***==*==**%%=,>>>>---.... @ ",
"..  @ ..-->>>>$&'%*==%%%=%%%**'&%%>>>>--- ......",
"  .. ...-->>>)&&&%==*&*!*&~!=*{{$*]>>>--- ..+...",
"......@+-->>>)&&&%=='){^$/!(*/__,&)>>>---+.. +..",
"+.......-->>>)&&&&&&)_:^/((&&<[:,,>>>>---...+...",
".. .....-->>>)&&)))$)^[[<[[<<}}:#>>>>>---.+.....",
"@..+@..@-->>>)&$!_!$/^}}|1<}}|<:#>>>>>---   +..+",
"@...... -->>>>$/:<|,2|}[,(|}}%::#>>>>>---..+....",
".. .. ..-->>>>,,:}<,1}}}/(|}}%::#>>>>>---..@+@++",
"....+ ..-->>>>,;_1}|[}}},|}}}%::#>>>>>---@..@+..",
" +....++-->>>>--!__:<}}}:<}}}:1:#>>>>>---..+..+.",
"@@....  -->>>>-->)3_|<}}}}}}}}|->>>>>>--- ......",
" +++ +..-->>>>-->>$4(|<<<<<<<1-->>>>>>---@ ..+..",
"@+..+ +.-->>>>-->>,55_6^:::::&-->>>>>>---..+....",
"++@ ....-->>>>-->>788299999990-->>>>>>---..++ ..",
" +@.. ..-->>>>-->a8bb88888888c-->>>>>>---.. ....",
"+....+..-->>>>--c8bb88bbbbdbbc4->>>>>>---..+@...",
".... .. -->>>>--c8bb78bbbbbbbc4->>>>>>---...@@@@",
"........-->>>>,^^:^c8dbdbbddde__#>>>>>---+ .....",
"....+ ..-->>>>,:1<<c8bdbbbddde__#>>>>>---.. +++.",
".... @..-->>>>/:1}[f8bdbdbddde_6!>>>>>--- ....  ",
"...... .-->>>>/:1[}[9a8888888g_(h,>>>>---.......",
"..@+ .. -->>>>/:1[}}!ijjjjjjj/!(h,>>>>---.+  ..+",
" ....+..-->>>>,:h1[^e00000000/_hh,>>>>---.  +...",
" ..+@  .-->>>>--!__!k000ii400,{!!>>>>>---.......",
" +..@+..-->>>>-->//j0004l/400/-->>>>>>---....@@+",
"..+@....-->>>>-->i40000#lij00,-->>>>>>---+.. ..+",
"@  ....+-->>>>-->i400i--#i444,-->>>>>>--- ..++++",
" +.. ..@-->>>>-->keffe--lmn299-->>>>>>---.......",
"+.... ..--------m29oop--,m29fqq----------@..+ ..",
"..+....@--------2ffooqq,;29ffoop#--------@..@+@.",
"..@ ..+....+ @++fpppppp,,fppppp9#.. @..@........",
"....@ .. .. +....l,,,l...+,,l,l@.. @..+..@ @@  .",
"@+..++@+....+....+........  ......  ..  .... ++.",
".... +.. +.. +.. ...... ..@ ..+++....+ ..@+ ....",
"..@..+..+....+..........+.... .. +.. +....+ ..  ",
"  ........++......@..+  +....++@....+.. ......  ",
"+..+....@+..+.. .. .... ......  ........+.. .. ."};
