/* XPM */
static char * ChatGPT Image 31 de ago_ de 2025, 18_45_09_xpm[] = {
"48 48 363 2",
"  	c None",
". 	c #221E2F",
"+ 	c #231F2F",
"@ 	c #231E2F",
"# 	c #231F30",
"$ 	c #322433",
"% 	c #473039",
"& 	c #483039",
"* 	c #483038",
"= 	c #3D2936",
"- 	c #482E39",
"; 	c #57393E",
"> 	c #58393F",
", 	c #58393E",
"' 	c #583A3F",
") 	c #3F2C37",
"! 	c #3E2B37",
"~ 	c #362634",
"{ 	c #4C313A",
"] 	c #593A3F",
"^ 	c #29202E",
"/ 	c #242131",
"( 	c #3C2735",
"_ 	c #583A3E",
": 	c #59393E",
"< 	c #57383E",
"[ 	c #58383E",
"} 	c #242031",
"| 	c #3D2735",
"1 	c #4D323B",
"2 	c #4E323B",
"3 	c #232031",
"4 	c #322434",
"5 	c #3D2736",
"6 	c #422B37",
"7 	c #50333B",
"8 	c #4E333B",
"9 	c #482F39",
"0 	c #59393F",
"a 	c #4B313A",
"b 	c #422D38",
"c 	c #3C2936",
"d 	c #493139",
"e 	c #292131",
"f 	c #3C2736",
"g 	c #3E2836",
"h 	c #53363D",
"i 	c #432C37",
"j 	c #4E383A",
"k 	c #86624E",
"l 	c #3D2836",
"m 	c #614640",
"n 	c #7F5D4C",
"o 	c #4F343B",
"p 	c #725346",
"q 	c #6C5045",
"r 	c #362534",
"s 	c #322634",
"t 	c #2A2231",
"u 	c #4D313A",
"v 	c #452C38",
"w 	c #302333",
"x 	c #69473F",
"y 	c #D18C6A",
"z 	c #392735",
"A 	c #282132",
"B 	c #90624E",
"C 	c #C48465",
"D 	c #56383F",
"E 	c #A87159",
"F 	c #A87158",
"G 	c #402937",
"H 	c #2A2232",
"I 	c #A97159",
"J 	c #D38E6B",
"K 	c #262131",
"L 	c #BA7F62",
"M 	c #B48060",
"N 	c #3F2937",
"O 	c #3C2837",
"P 	c #EABA8B",
"Q 	c #F6C08D",
"R 	c #C39871",
"S 	c #3D2837",
"T 	c #292132",
"U 	c #292232",
"V 	c #BC9470",
"W 	c #F0BF8C",
"X 	c #F0BE8B",
"Y 	c #DEBA8D",
"Z 	c #ECBD8B",
"` 	c #EABE8C",
" .	c #DEB98C",
"..	c #DEBA8C",
"+.	c #F4C28F",
"@.	c #F6C28E",
"#.	c #C49872",
"$.	c #211E2F",
"%.	c #372535",
"&.	c #866652",
"*.	c #9B7459",
"=.	c #895F4D",
"-.	c #362635",
";.	c #BF9773",
">.	c #F6C18D",
",.	c #C7A480",
"'.	c #E3B284",
").	c #EFB988",
"!.	c #F7C28E",
"~.	c #C9A580",
"{.	c #E4B688",
"].	c #C39872",
"^.	c #201E2E",
"/.	c #382635",
"(.	c #C49973",
"_.	c #ECB384",
":.	c #D59C74",
"<.	c #716553",
"[.	c #CCA57C",
"}.	c #F6C28F",
"|.	c #252132",
"1.	c #BB8163",
"2.	c #E1A47A",
"3.	c #463438",
"4.	c #C49972",
"5.	c #EBBD8C",
"6.	c #242032",
"7.	c #E0B385",
"8.	c #F6C18E",
"9.	c #BA8062",
"0.	c #E0A379",
"a.	c #473438",
"b.	c #A76F58",
"c.	c #E3AB7F",
"d.	c #F5C18D",
"e.	c #DA9F75",
"f.	c #F2BD8B",
"g.	c #D5AD81",
"h.	c #F6C48F",
"i.	c #483438",
"j.	c #211E2E",
"k.	c #795E4C",
"l.	c #9F8265",
"m.	c #A68C6E",
"n.	c #D4906E",
"o.	c #F0BB8A",
"p.	c #C49A72",
"q.	c #E9B888",
"r.	c #C79B74",
"s.	c #E4B384",
"t.	c #2A2233",
"u.	c #2F2232",
"v.	c #A9735B",
"w.	c #DFA87D",
"x.	c #F1BB89",
"y.	c #DAAB7F",
"z.	c #372635",
"A.	c #272749",
"B.	c #B37C68",
"C.	c #DAA27B",
"D.	c #EBB485",
"E.	c #EDB786",
"F.	c #EDB787",
"G.	c #E1B183",
"H.	c #222031",
"I.	c #2E356F",
"J.	c #2E3671",
"K.	c #A56565",
"L.	c #C37860",
"M.	c #D28E6C",
"N.	c #D28F6C",
"O.	c #D3906D",
"P.	c #D2906D",
"Q.	c #3B2934",
"R.	c #2D3671",
"S.	c #334EA3",
"T.	c #64538B",
"U.	c #785B7E",
"V.	c #7B6883",
"W.	c #7B6984",
"X.	c #7B6985",
"Y.	c #7B6A85",
"Z.	c #7B6980",
"`.	c #796568",
" +	c #2F2F59",
".+	c #314189",
"++	c #334DA1",
"@+	c #3455B2",
"#+	c #3354B1",
"$+	c #3350A8",
"%+	c #334EA4",
"&+	c #344EA4",
"*+	c #334DA2",
"=+	c #314A9B",
"-+	c #2B3061",
";+	c #2B3060",
">+	c #334897",
",+	c #3354B0",
"'+	c #304B9E",
")+	c #314FA7",
"!+	c #3353B0",
"~+	c #262746",
"{+	c #292E60",
"]+	c #314796",
"^+	c #3254B1",
"/+	c #3355B1",
"(+	c #2C3B7D",
"_+	c #30499A",
":+	c #3454B1",
"<+	c #2C3160",
"[+	c #262645",
"}+	c #221F31",
"|+	c #CC8F69",
"1+	c #CE896A",
"2+	c #D3906E",
"3+	c #CB8E6E",
"4+	c #2B3164",
"5+	c #3351A9",
"6+	c #60435B",
"7+	c #AC7262",
"8+	c #A46C56",
"9+	c #201D2D",
"0+	c #D0956C",
"a+	c #E3A87D",
"b+	c #E6B788",
"c+	c #2B3062",
"d+	c #3250A7",
"e+	c #3354B2",
"f+	c #AC7261",
"g+	c #A36C55",
"h+	c #201D2E",
"i+	c #232032",
"j+	c #D0956D",
"k+	c #E7AD80",
"l+	c #F0BF8D",
"m+	c #AD8B75",
"n+	c #5C5D9B",
"o+	c #3352AC",
"p+	c #3355B2",
"q+	c #5F425C",
"r+	c #AB7161",
"s+	c #B7795C",
"t+	c #96634D",
"u+	c #E7AC7F",
"v+	c #7C6576",
"w+	c #2F4592",
"x+	c #314DA2",
"y+	c #314DA3",
"z+	c #314DA1",
"A+	c #314CA2",
"B+	c #543C56",
"C+	c #A66C5C",
"D+	c #CA8364",
"E+	c #D38B67",
"F+	c #E6AC7F",
"G+	c #242544",
"H+	c #27284D",
"I+	c #26284C",
"J+	c #26274C",
"K+	c #26284D",
"L+	c #242134",
"M+	c #91554A",
"N+	c #C1775D",
"O+	c #D38A67",
"P+	c #CF946C",
"Q+	c #CF8968",
"R+	c #E2A97D",
"S+	c #F3BE8B",
"T+	c #CF8A69",
"U+	c #695059",
"V+	c #2F3957",
"W+	c #2F3A57",
"X+	c #2F3956",
"Y+	c #242234",
"Z+	c #A36A55",
"`+	c #CC8665",
" @	c #8D6451",
".@	c #99785F",
"+@	c #A28267",
"@@	c #8E675C",
"#@	c #4D4456",
"$@	c #2E3957",
"%@	c #2E3856",
"&@	c #272C43",
"*@	c #2A314B",
"=@	c #2F3856",
"-@	c #232133",
";@	c #6F4F44",
">@	c #8B624F",
",@	c #8E634E",
"'@	c #232137",
")@	c #23223C",
"!@	c #2A3050",
"~@	c #2D3755",
"{@	c #2E3855",
"]@	c #292F49",
"^@	c #211F30",
"/@	c #222239",
"(@	c #272B46",
"_@	c #2E3956",
":@	c #222133",
"<@	c #24243E",
"[@	c #252647",
"}@	c #2F3A58",
"|@	c #2E3853",
"1@	c #1E1C2C",
"2@	c #242543",
"3@	c #292F4D",
"4@	c #303A57",
"5@	c #25243E",
"6@	c #252747",
"7@	c #262A41",
"8@	c #252542",
"9@	c #262747",
"0@	c #262848",
"a@	c #272849",
"b@	c #222032",
"c@	c #4A4056",
"d@	c #584A5E",
"e@	c #8D7B82",
"f@	c #8D7C83",
"g@	c #60535B",
"h@	c #322D47",
"i@	c #39334E",
"j@	c #5B4E5F",
"k@	c #88757D",
"l@	c #89767C",
"m@	c #332D45",
"n@	c #6E5F6B",
"o@	c #85727B",
"p@	c #CFBCB2",
"q@	c #B09F98",
"r@	c #221F30",
"s@	c #363048",
"t@	c #5A4D5D",
"u@	c #826F78",
"v@	c #948086",
"w@	c #C7B7AF",
"x@	c #C3B3A9",
"y@	c #5D505C",
"z@	c #917D82",
"A@	c #A08A8E",
"B@	c #D8C6BB",
"C@	c #D8C5BB",
"D@	c #C6B3AA",
"E@	c #B7A9A2",
"F@	c #231F31",
"G@	c #665863",
"H@	c #84727A",
"I@	c #9D878C",
"J@	c #D1C0B7",
"K@	c #D8C6BC",
"L@	c #AA9C96",
"M@	c #201C2D",
"N@	c #8A787D",
"O@	c #AE989A",
"P@	c #AE989B",
"Q@	c #AD9A9A",
"R@	c #9A878A",
"S@	c #AD989A",
"T@	c #AD989B",
"U@	c #AD979A",
"V@	c #88777B",
"                                                                                                ",
"                                                                                                ",
"                                                                                                ",
"                                                                                                ",
"                                                                                                ",
"                                    . + + . + @ . # @ # .                                       ",
"                                    $ % & % & * & & & & %                                       ",
"                                  = - ; > , ' , , ' ' ' ; ) !                                   ",
"                                ~ { ; ' ' , ' ] ' ' ' ] ' , ; & ^                               ",
"                            / ( { ; , ' _ : _ ] ] ' ' ] _ , ; < [ }                             ",
"                            } | { ; , ' > , > : ] , _ _ > , 1 2 : 3                             ",
"                            4 5 6 7 , ' ' 8 9 9 0 a 9 1 > ; b c - d                             ",
"                          e f g 5 { 0 ] h i j k h l m n > o p q r h s                           ",
"                          t 5 g l u ] ] v w x y z A B C D A E F 3 G e                           ",
"                          t l l 5 l g l H I J J K L M N O P Q R / }                             ",
"                          H S S 4 T e O U V W X Y Z `  ...+.@.#.$.                              ",
"                          T 5 %.&.*.=.-.A ;.@.>.,.'.).!.@.~.{.].^.                              ",
"                            /.K (._.:./ <.[.}.>.|.1.2.@.@.3.4.4.^.                              ",
"                            3 3 (.!.5.6.7.}.}.8.|.9.0.@.@.a.(.4.^.                              ",
"                            } 3 b.c.d.e.f.}.}.8.|.g.h.@.@.i.(.4.j.                              ",
"                                k.l.m.n.o.}.@.@.p.q.@.}.@.r.s.(.j.                              ",
"                                  t.u.v.w.x.@.@.@.@.@.@.@.@.y.                                  ",
"                                    z.A.B.C.D.E.E.E.E.F.E.G.                                    ",
"                                    H.I.J.K.L.M.N.O.O.P.O.Q.                                    ",
"                                    R.S.S.T.U.V.W.X.Y.Z.`. +                                    ",
"                                  .+++@+#+$+%+%+&+&+%+*+=+-+                                    ",
"                                ;+>+,+#+'+)+#+#+,+#+#+#+!+;+~+                                  ",
"                                {+]+^+/+(+_+#+#+#+#+#+:+,+<+[+                                  ",
"                            }+|+1+2+3+4+5+@+/+#+#+#+#+:+#+6+7+8+9+                              ",
"                            3 0+a+o.b+c+d+#+e+#+#+#+#+e+:+6+f+g+h+                              ",
"                            i+j+k+8.l+m+n+o+p+#+#+#+#+e+e+q+r+s+t+                              ",
"                            3 j+u+>.8.8.v+w+x+y+z+x+A+x+y+B+C+D+E+3                             ",
"                            3 0+F+>.8.8.k.G+H+I+J+K+H+H+H+L+M+N+O+3                             ",
"                            3 P+Q+R+S+T+U+V+W+W+X+V+V+X+V+Y+Z+`+O+3                             ",
"                                 @.@+@@@#@$@$@%@&@&@*@X+=@-@;@>@,@                              ",
"                                  '@)@!@~@V+{@]@^@/@(@_@X+:@                                    ",
"                                  <@[@_@V+}@|@1@^@2@3@4@4@:@                                    ",
"                                  5@6@X+X+7@    ^@8@9@0@a@b@                                    ",
"                                  c@d@e@f@g@    ^@h@i@j@k@l@                                    ",
"                                m@n@o@p@p@q@    r@s@t@u@v@w@x@                                  ",
"                                y@z@A@B@C@D@E@F@r@G@H@I@I@J@K@L@M@                              ",
"                                N@O@P@P@P@O@Q@F@}+R@P@P@S@T@U@V@h+                              ",
"                                  F@F@3 3 }+        F@3 3 3 F@                                  ",
"                                                                                                ",
"                                                                                                ",
"                                                                                                ",
"                                                                                                ",
"                                                                                                "};
