/* XPM */
static char * player_exit_open_48_xpm[] = {
"48 48 58 1",
" 	c #2ECC71",
".	c #27AE60",
"+	c #1E8449",
"@	c #239B56",
"#	c #211E2E",
"$	c #64320A",
"%	c #3A2636",
"&	c #4A2C38",
"*	c #3D2836",
"=	c #58393F",
"-	c #59383F",
";	c #8B4513",
">	c #242131",
",	c #232132",
"'	c #492A39",
")	c #3C3C3C",
"!	c #2B2333",
"~	c #92584D",
"{	c #5B3B3E",
"]	c #704442",
"^	c #2E2938",
"/	c #D08C6A",
"(	c #252033",
"_	c #C78063",
":	c #A4725C",
"<	c #D4916F",
"[	c #F3B684",
"}	c #F6BF8D",
"|	c #141414",
"1	c #F6C28E",
"2	c #D99E7B",
"3	c #ECA97A",
"4	c #635366",
"5	c #2C2035",
"6	c #262849",
"7	c #2C336D",
"8	c #BA6D58",
"9	c #323B78",
"0	c #364FA3",
"a	c #7F6772",
"b	c #2F3855",
"c	c #323F86",
"d	c #3454B0",
"e	c #2C3160",
"f	c #3354B2",
"g	c #604359",
"h	c #978288",
"i	c #5D3F4E",
"j	c #D18C68",
"k	c #272744",
"l	c #26284D",
"m	c #473C54",
"n	c #201E31",
"o	c #362F3D",
"p	c #3C344F",
"q	c #DBBFB8",
"r	c #AD9799",
"s	c #C2ADA7",
" .. .................. + ......++........+@..+..",
"......+ ....+..++..+ ....+.............. ..+..  ",
"..++..+..+......+..@.. +..@ ....@  @+.. +....+..",
"..+..+.. + ....+ @@+..+..++....+..@..........@+.",
"..  ......+....@@++..@+..@.... ++++......@......",
"..++@.... .... +..###########.+ +..++..@+.......",
"......$$$$$$$$$$$$%&&&&&&&&&&$$$$$$$$$$$$$$@....",
"......$$$$$$$$$$$*&=-========**$$$$$$$$$$$$... +",
".. ..+$$;;;;;;;;%&=------=--===&>;;;;;;;;$$....+",
".... .$$;;;;;;>*&=----=-----====->;;;;;;;$$. @ .",
"..   +$$;;;;;;,*&=--===--=--==&&-,;;;;;;;$$.. @ ",
"..  @ $$;;;;;;%*'&=--&&&-&&&=='*&&;;;;;;;$$.....",
"  .. .$$;;;;)!***&--=*=~=*{~-=]]%=^));;;;$$.+...",
"......$$;;;;)!***&--'!]/%(~_=(::,*!));;;;$$. +..",
"+.....$$;;;;)!******!:</(__**[}<,,|));;;;$$.+...",
".. ...$$;;;;)!**!!!%!/}}[}}[[11<#||));;;;$$.....",
"@..+@.$$;;;;)!*%~:~%(/1123[112[<#||));;;;$$ +..+",
"@.....$$;;;;))%(<[2,421},_211&<<#||));;;;$$+....",
".. .. $$;;;;)),,<1[,3111(_211&<<#||));;;;$$@+@++",
"....+ $$;;;;)),>:312}111,2111&<<#||));;;;$$.@+..",
" +....$$;;;;))||~::<[111<[111<3<#||));;;;$$+..+.",
"@@....$$;;;;))|||!5:2[111111112||||));;;;$$.....",
" +++ +$$;;;;))||||%6_2[[[[[[[3|||||));;;;$$..+..",
"@+..+ $$;;;;))||||,77:8/<<<<<*|||||));;;;$$+....",
"++@ ..$$;;;;))||||9004aaaaaaab|||||));;;;$$++ ..",
" +@.. $$;;;;))|||c0dd00000000e|||||));;;;$$ ....",
"+....+$$;;;;))||e0dd00ddddfdde6||||));;;;$$+@...",
".... .$$;;;;))||e0dd90ddddddde6||||));;;;$$.@@@@",
"......$$;;;;)),//</e0fdfddfffg::#||));;;;$$.....",
"....+ $$;;;;)),<3[[e0dfdddfffg::#||));;;;$$ +++.",
".... @$$;;;;))(<31}h0dfdfdfffg:8~||));;;;$$...  ",
"......$$;;;;))(<3}1}ac0000000i:_j,|));;;;$$.....",
"..@+ .$$;;;;))(<3}11~klllllll(~_j,|));;;;$$  ..+",
" ....+$$;;;;)),<j3}/gbbbbbbbb(:jj,|));;;;$$ +...",
" ..+@ $$;;;;))||~::~mbbbkk6bb,]~~||));;;;$$.....",
" +..@+$$;;;;)))))((lbbb6n(6bb()))))));;;;$$..@@+",
"..+@..$$;;;;)))))k6bbbb#nklbb,)))))));;;;$$. ..+",
"@  ...$$;;;;;;;;;k6bbk;;#k666,;;;;;;;;;;;$$.++++",
" +.. .$$;;;;;;;;;mghhg;;nop4aa;;;;;;;;;;;$$.....",
"+.... $$;;;;;;;;o4aqqr;;,o4ahss;;;;;;;;;;$$.+ ..",
"..+...$$;;;;;;;;4hhqqss,>4ahhqqr#;;;;;;;;$$.@+@.",
"..@ ..$$$$$$$$$$hrrrrrr,,hrrrrra#$$$$$$$$$$.....",
"....@ $$$$$$$$$$$n,,,n$$$$,,n,n$$$$$$$$$$$$@@  .",
"@+..++@+....+....+........  ......  ..  .... ++.",
".... +.. +.. +.. ...... ..@ ..+++....+ ..@+ ....",
"..@..+..+....+..........+.... .. +.. +....+ ..  ",
"  ........++......@..+  +....++@....+.. ......  ",
"+..+....@+..+.. .. .... ......  ........+.. .. ."};
