/* XPM */
static const char *player_482[] = {
/* columns rows colors chars-per-pixel */
"48 48 47 1 ",
"  c #211E2E",
". c #201E31",
"X c #232132",
"o c #242131",
"O c #2B2333",
"+ c #2C2035",
"@ c #2E2938",
"# c #3A2636",
"$ c #3D2836",
"% c #362F3D",
"& c #492A39",
"* c #4A2C38",
"= c #58393F",
"- c #272744",
"; c #262849",
": c #26284D",
"> c #3C344F",
", c #2F3855",
"< c #2C3160",
"1 c #2C336D",
"2 c #323B78",
"3 c #5D3F4E",
"4 c #473C54",
"5 c #704442",
"6 c #604359",
"7 c #635366",
"8 c #7F6772",
"9 c #92584D",
"0 c #BA6D58",
"q c #A4725C",
"w c #C78063",
"e c #D08C6A",
"r c #D4916F",
"t c #D99E7B",
"y c #ECA97A",
"u c #323F86",
"i c #364FA3",
"p c #3354B2",
"a c #3454B0",
"s c #978288",
"d c #AD9799",
"f c #F3B684",
"g c #F6BF8D",
"h c #C2ADA7",
"j c #DBBFB8",
"k c #F6C28E",
"l c None",
/* pixels */
"llllllllllllllllllllllllllllllllllllllllllllllll",
"llllllllllllllllllllllllllllllllllllllllllllllll",
"llllllllllllllllllllllllllllllllllllllllllllllll",
"llllllllllllllllllllllllllllllllllllllllllllllll",
"llllllllllllllllllllllllllllllllllllllllllllllll",
"llllllllllllllllll           lllllllllllllllllll",
"llllllllllllllllll#**********lllllllllllllllllll",
"lllllllllllllllll$*==========$$lllllllllllllllll",
"llllllllllllllll#*=============*olllllllllllllll",
"llllllllllllllo$*================ollllllllllllll",
"llllllllllllllX$*=============**=Xllllllllllllll",
"llllllllllllll#$&*===***=***==&$**llllllllllllll",
"lllllllllllllO$$$*===$=9=$=9==55#=@lllllllllllll",
"lllllllllllllO$$$*==&O5e#o9w=oqqX$Olllllllllllll",
"lllllllllllllO$$$$$$Oqreoww$$fgrXXllllllllllllll",
"lllllllllllllO$$OOO#Oeggfggffkkr lllllllllllllll",
"lllllllllllllO$#9q9#oekktyfkktfr lllllllllllllll",
"llllllllllllll#orftX7tkgXwtkk*rr lllllllllllllll",
"llllllllllllllXXrkfXykkkowtkk*rr lllllllllllllll",
"llllllllllllllXoqyktgkkkXtkkk*rr lllllllllllllll",
"llllllllllllllll9qqrfkkkrfkkkryr lllllllllllllll",
"lllllllllllllllllO+qtfkkkkkkkktlllllllllllllllll",
"llllllllllllllllll#;wtfffffffyllllllllllllllllll",
"llllllllllllllllllX11q0errrrr$llllllllllllllllll",
"llllllllllllllllll2ii78888888,llllllllllllllllll",
"llllllllllllllllluiaaiiiiiiii<llllllllllllllllll",
"llllllllllllllll<iaaiiaaaapaa<;lllllllllllllllll",
"llllllllllllllll<iaa2iaaaaaaa<;lllllllllllllllll",
"llllllllllllllXeere<ipapaappp6qq lllllllllllllll",
"llllllllllllllXryff<iapaaappp6qq lllllllllllllll",
"llllllllllllllorykgsiapapappp6q09lllllllllllllll",
"llllllllllllllorygkg8uiiiiiii3qweXllllllllllllll",
"llllllllllllllorygkk9-:::::::o9weXllllllllllllll",
"llllllllllllllXreyge6,,,,,,,,oqeeXllllllllllllll",
"llllllllllllllll9qq94,,,--;,,X599lllllllllllllll",
"llllllllllllllllloo:,,,;.o;,,ollllllllllllllllll",
"lllllllllllllllll-;,,,, .-:,,Xllllllllllllllllll",
"lllllllllllllllll-;,,-ll -;;;Xllllllllllllllllll",
"lllllllllllllllll46ss6ll.%>788llllllllllllllllll",
"llllllllllllllll%78jjdllX%78shhlllllllllllllllll",
"llllllllllllllll7ssjjhhXo78ssjjd lllllllllllllll",
"llllllllllllllllsddddddXXsddddd8 lllllllllllllll",
"lllllllllllllllll.XXX.llllXX.X.lllllllllllllllll",
"llllllllllllllllllllllllllllllllllllllllllllllll",
"llllllllllllllllllllllllllllllllllllllllllllllll",
"llllllllllllllllllllllllllllllllllllllllllllllll",
"llllllllllllllllllllllllllllllllllllllllllllllll",
"llllllllllllllllllllllllllllllllllllllllllllllll"
};
