/* XPM */
static char * player_48_xpm[] = {
"48 48 54 1",
" 	c #2ECC71",
".	c #27AE60",
"+	c #1E8449",
"@	c #239B56",
"#	c #211E2E",
"$	c #3A2636",
"%	c #4A2C38",
"&	c #3D2836",
"*	c #58393F",
"=	c #59383F",
"-	c #242131",
";	c #232132",
">	c #492A39",
",	c #2B2333",
"'	c #92584D",
")	c #5B3B3E",
"!	c #704442",
"~	c #2E2938",
"{	c #D08C6A",
"]	c #252033",
"^	c #C78063",
"/	c #A4725C",
"(	c #D4916F",
"_	c #F3B684",
":	c #F6BF8D",
"<	c #F6C28E",
"[	c #D99E7B",
"}	c #ECA97A",
"|	c #635366",
"1	c #2C2035",
"2	c #262849",
"3	c #2C336D",
"4	c #BA6D58",
"5	c #323B78",
"6	c #364FA3",
"7	c #7F6772",
"8	c #2F3855",
"9	c #323F86",
"0	c #3454B0",
"a	c #2C3160",
"b	c #3354B2",
"c	c #604359",
"d	c #978288",
"e	c #5D3F4E",
"f	c #D18C68",
"g	c #272744",
"h	c #26284D",
"i	c #473C54",
"j	c #201E31",
"k	c #362F3D",
"l	c #3C344F",
"m	c #DBBFB8",
"n	c #AD9799",
"o	c #C2ADA7",
" .. .................. + ......++........+@..+..",
"......+ ....+..++..+ ....+.............. ..+..  ",
"..++..+..+......+..@.. +..@ ....@  @+.. +....+..",
"..+..+.. + ....+ @@+..+..++....+..@..........@+.",
"..  ......+....@@++..@+..@.... ++++......@......",
"..++@.... .... +..###########.+ +..++..@+.......",
"...... ....+..@@@ $%%%%%%%%%%....... ......@....",
"..........+ ....@&%*=********&& ....+.... .... +",
".. ..++......+..$%*======*==***%-.. ..++.. ....+",
".... .. +@....-&%*====*=====****=-....@..@.. @ .",
"..   +....@...;&%*==***==*==**%%=;..... +.... @ ",
"..  @ ..+.. ..$&>%*==%%%=%%%**>&%%..@@..+ ......",
"  .. ....  ..,&&&%==*&*'*&)'=*!!$*~.....@ ..+...",
"......@++....,&&&%==>,!{$]'^*]//;&,... ..+.. +..",
"+............,&&&&&&,/({]^^&&_:(;;.. ++@....+...",
".. ........@.,&&,,,$,{::_::__<<(#+........+.....",
"@..+@..@ +...,&$'/'$]{<<[}_<<[_(#++.. +..   +..+",
"@...... ..+..+$](_[;|[<:;^[<<%((#..+@..@ ..+....",
".. .. ........;;(<_;}<<<]^[<<%((#..........@+@++",
"....+ ....+++.;-/}<[:<<<;[<<<%((#@..@  ..@..@+..",
" +....++..+....+'//(_<<<(_<<<(}(#...+ ..+..+..+.",
"@@....  ....+@@..,1/[_<<<<<<<<[.+@  +.... ......",
" +++ +........+...$2^[_______}.+....+..@+@ ..+..",
"@+..+ +........+..;33/4{(((((&+.... +......+....",
"++@ ....+ ..+++ @ 566|77777778....+.. @....++ ..",
" +@.. .. ....++++960066666666a. ..+ @...... ....",
"+....+..@+  ....a600660000b00a2 @+@ ....+..+@...",
".... .. ++ .... a600560000000a2..@ .. ......@@@@",
"........ ++++.;{{({a6b0b00bbbc//#+ .. +..+ .....",
"....+ ........;(}__a60b000bbbc//#@....@.... +++.",
".... @.. ..+..](}<:d60b0b0bbbc/4'.+@..+.. ....  ",
"...... .......](}:<:796666666e/^f;...++@........",
"..@+ ..  .....](}:<<'ghhhhhhh]'^f;+.. ....+  ..+",
" ....+..  +...;(f}:{c88888888]/ff;.   ....  +...",
" ..+@  ..+......'//'i888gg288;!''.. + ..@.......",
" +..@+..+ +..  +.]]h8882j]288]++..  .. ......@@+",
"..+@.... +..@+@+@g28888#jgh88;....@ @@..++.. ..+",
"@  ....+.. ++....g288g.@#g222;..........+ ..++++",
" +.. ..@+@ +.....icddc@.jkl|77  ..+.............",
"+.... ........@.k|7mmn.@;k|7doo+....++..+@..+ ..",
"..+....@........|ddmmoo;-|7ddmmn#...@....@..@+@.",
"..@ ..+....+ @++dnnnnnn;;dnnnnn7#.. @..@........",
"....@ .. .. +....j;;;j...+;;j;j@.. @..+..@ @@  .",
"@+..++@+....+....+........  ......  ..  .... ++.",
".... +.. +.. +.. ...... ..@ ..+++....+ ..@+ ....",
"..@..+..+....+..........+.... .. +.. +....+ ..  ",
"  ........++......@..+  +....++@....+.. ......  ",
"+..+....@+..+.. .. .... ......  ........+.. .. ."};
