/* XPM */
static char *wall_xpm[] = {
"48 48 6 1",
"  c #2f3640",
". c #636e72",
"+ c #4b5358",
"- c #7f8c8d",
"* c #95a5a6",
"# c #aab7b8",
"................................................",
"................................................",
"................................................",
"...###------######------######------######---...",
"...###------######------######------######---...",
"...###------######------######------######---...",
"...---******---******---******---******---......",
"...---******---******---******---******---......",
"...---******---******---******---******---......",
"...###------######------######------######---...",
"...###------######------######------######---...",
"...###------######------######------######---...",
"...---******---******---******---******---......",
"...---******---******---******---******---......",
"...---******---******---******---******---......",
"...###------######------######------######---...",
"...###------######------######------######---...",
"...###------######------######------######---...",
"...---******---******---******---******---......",
"...---******---******---******---******---......",
"...---******---******---******---******---......",
"...###------######------######------######---...",
"...###------######------######------######---...",
"...###------######------######------######---...",
"...---******---******---******---******---......",
"...---******---******---******---******---......",
"...---******---******---******---******---......",
"...###------######------######------######---...",
"...###------######------######------######---...",
"...###------######------######------######---...",
"...---******---******---******---******---......",
"...---******---******---******---******---......",
"...---******---******---******---******---......",
"...###------######------######------######---...",
"...###------######------######------######---...",
"...###------######------######------######---...",
"...---******---******---******---******---......",
"...---******---******---******---******---......",
"...---******---******---******---******---......",
"...###------######------######------######---...",
"...###------######------######------######---...",
"...###------######------######------######---...",
"...---******---******---******---******---......",
"...---******---******---******---******---......",
"...---******---******---******---******---......",
"................................................",
"................................................",
"................................................"
};
